# xmcd
#
# Track frame offsets: 
#        150
#        18167
#        32795
#        51534
#        68682
#        85671
#        101796
#        119560
#        132969
#        147094
#
# Disc length: 2047 seconds
#
# Revision: 2
# Processed by: cddbd v1.5.2PL0 Copyright (c) Steve Scherf et al.
# Submitted via: ExactAudioCopyFreeDBPlugin 1.0
#
DISCID=8907fd0a
DTITLE=The WIRED! Band - Washington Blues
DYEAR=2011
DGENRE=Blues
TTITLE0=Washington Blues
TTITLE1=I'm a Train
TTITLE2=Woe is Me
TTITLE3=Still Ain't Got the Blues
TTITLE4=Politician's Song
TTITLE5=Loser
TTITLE6=Talk to the Boss
TTITLE7=Stroll on Down
TTITLE8=Blues For You
TTITLE9=John the Revelator
EXTD=YEAR: 2011
EXTT0=
EXTT1=
EXTT2=
EXTT3=
EXTT4=
EXTT5=
EXTT6=
EXTT7=
EXTT8=
EXTT9=
PLAYORDER=
